<?xml version="1.0" encoding="UTF-8"?>
<svg width="154px" height="154px" viewBox="0 0 154 154" version="1.1" xmlns="http://www.w3.org/2000/svg" xmlns:xlink="http://www.w3.org/1999/xlink">
    <title>Group 6</title>
    <defs>
        <filter x="-46.7%" y="-46.7%" width="193.3%" height="193.3%" filterUnits="objectBoundingBox" id="filter-1">
            <feOffset dx="0" dy="0" in="SourceAlpha" result="shadowOffsetOuter1"></feOffset>
            <feGaussianBlur stdDeviation="10" in="shadowOffsetOuter1" result="shadowBlurOuter1"></feGaussianBlur>
            <feColorMatrix values="0 0 0 0 0.0156862745   0 0 0 0 0.490196078   0 0 0 0 1  0 0 0 0.621694712 0" type="matrix" in="shadowBlurOuter1" result="shadowMatrixOuter1"></feColorMatrix>
            <feMerge>
                <feMergeNode in="shadowMatrixOuter1"></feMergeNode>
                <feMergeNode in="SourceGraphic"></feMergeNode>
            </feMerge>
        </filter>
    </defs>
    <g id="Enable-Location-Services-#Apple" stroke="none" stroke-width="1" fill="none" fill-rule="evenodd">
        <g id="Location-1-#iOS" transform="translate(-110.000000, -220.000000)">
            <g id="Group-5" transform="translate(33.000000, 201.000000)">
                <g id="Group-6" transform="translate(109.000000, 51.000000)">
                    <g id="Group" filter="url(#filter-1)" stroke="#047DFF" stroke-width="6">
                        <path d="M45,90 C69.8528137,90 90,69.8528137 90,45 C90,20.1471863 69.8528137,0 45,0 C20.1471863,0 0,20.1471863 0,45 C0,69.8528137 20.1471863,90 45,90 Z" id="Oval"></path>
                    </g>
                    <g id="Group-4" transform="translate(19.000000, 21.000000)" stroke="#FFFFFF" stroke-linecap="round" stroke-linejoin="round">
                        <g id="map-trifold" transform="translate(0.000000, 7.000000)" stroke-width="3.6">
                            <polyline id="Path" points="14.3333333 32.7272727 0 36.3636364 0 3.63636364 14.3333333 0"></polyline>
                            <polygon id="Path" points="28.6666667 40 14.3333333 32.7272727 14.3333333 0 28.6666667 7.27272727"></polygon>
                            <polyline id="Path" points="28.6666667 7.27272727 43 3.63636364 43 36.3636364 28.6666667 40"></polyline>
                        </g>
                        <g id="map-pin" transform="translate(34.000000, 0.000000)">
                            <path d="M19,9.61538462 C19,18.2692308 9.5,25 9.5,25 C9.5,25 0,18.2692308 0,9.61538462 C0,4.30495433 4.25329488,0 9.5,0 C14.7467051,0 19,4.30495433 19,9.61538462 Z" id="Path" stroke-width="2.3" fill="#313543"></path>
                            <ellipse id="Oval" stroke-width="1.92" cx="9.5" cy="9.61538462" rx="3.8" ry="3.84615385"></ellipse>
                        </g>
                    </g>
                </g>
            </g>
        </g>
    </g>
</svg>