<?xml version="1.0" encoding="UTF-8"?>
<svg width="150px" height="150px" viewBox="0 0 150 150" version="1.1" xmlns="http://www.w3.org/2000/svg" xmlns:xlink="http://www.w3.org/1999/xlink">
    <title>Group 6</title>
    <defs>
        <filter x="-48.8%" y="-48.8%" width="197.7%" height="197.7%" filterUnits="objectBoundingBox" id="filter-1">
            <feOffset dx="0" dy="0" in="SourceAlpha" result="shadowOffsetOuter1"></feOffset>
            <feGaussianBlur stdDeviation="10" in="shadowOffsetOuter1" result="shadowBlurOuter1"></feGaussianBlur>
            <feColorMatrix values="0 0 0 0 0.482352941   0 0 0 0 0.760784314   0 0 0 0 0.243137255  0 0 0 0.449109484 0" type="matrix" in="shadowBlurOuter1" result="shadowMatrixOuter1"></feColorMatrix>
            <feMerge>
                <feMergeNode in="shadowMatrixOuter1"></feMergeNode>
                <feMergeNode in="SourceGraphic"></feMergeNode>
            </feMerge>
        </filter>
    </defs>
    <g id="Touch-ID---Apple" stroke="none" stroke-width="1" fill="none" fill-rule="evenodd">
        <g id="Touch-ID-4-#iOS" transform="translate(-113.000000, -259.000000)">
            <g id="Group-6" transform="translate(145.000000, 291.000000)">
                <g id="363335_finger-print_id_touch_touch-id_icon" transform="translate(15.000000, 15.000000)" stroke="#FFFFFF" stroke-linecap="round" stroke-width="2">
                    <g id="Group">
                        <path d="M3.07246506,15.2606838 C0.288109757,20.7010058 -0.743682964,27.0870795 0.55771868,33.5445189" id="Path"></path>
                        <path d="M40.3073607,2.86022367 C34.9647535,0.236228382 28.7468062,-0.710151159 22.4615089,0.557896971 C15.3215786,1.99818534 9.36947533,6.03840141 5.39018149,11.4944197" id="Path"></path>
                        <path d="M55.4274223,22.4742641 C53.9507435,15.1466243 49.7405356,9.06840649 44.0731008,5.0890919" id="Path"></path>
                    </g>
                    <g id="Group" transform="translate(0.572778, 22.471334)">
                        <path d="M55.4220986,6.10144829 C55.4605843,4.09358333 55.2827972,2.05034948 54.8697036,0" id="Path"></path>
                        <path d="M0,11.0704641 C0.0811545866,11.4724975 0.170257303,11.8707638 0.26751731,12.265263" id="Path"></path>
                    </g>
                    <path d="M20.7673024,55.0670146 C27.0373308,47.9264742 30.022481,38.0439027 27.9998911,28.0079265" id="Path"></path>
                    <path d="M23.2190912,44.4036067 C21.8480388,47.9191493 19.7798518,51.1280917 17.1492301,53.8268012" id="Path"></path>
                    <path d="M24.6855211,55.8216905 C30.7618662,48.0415801 33.5334626,37.7536266 31.4299274,27.3162448 L31.4408038,27.312687 C31.0567836,25.4073709 29.2021503,24.1742731 27.2979458,24.5585175 C25.3939504,24.9427618 24.1617812,26.7984777 24.5455922,28.7040031 L24.5704824,28.6998174 C25.3540006,32.5885123 25.2920889,36.4516746 24.5110806,40.0984379" id="Path"></path>
                    <path d="M21.4064993,30.968868 C22.5035504,39.068345 19.4790779,46.8915678 13.8428082,52.1678116" id="Path"></path>
                    <path d="M35.6261215,34.1688113 C35.6192192,31.6804316 35.3694806,29.1564738 34.8593362,26.6243539 L34.8670751,26.6214239 C34.1017539,22.8225116 30.4035729,20.363641 26.6068768,21.1298275 C23.7708587,21.7020083 21.6819647,23.9116225 21.1262232,26.5768466" id="Path"></path>
                    <path d="M28.8867351,56 C32.388932,50.8790444 34.6608421,44.920746 35.3801478,38.6089679" id="Path"></path>
                    <path d="M28.8149928,17.5232466 C27.8677012,17.4493696 26.8940553,17.5037833 25.9162262,17.7011375 C20.2268295,18.849057 16.5447539,24.3938114 17.6920037,30.0869478 L17.7116648,30.0835993 C19.2632234,37.7835542 16.3954127,45.348312 10.8555664,50.1488547" id="Path"></path>
                    <path d="M33.3491915,55.492697 C38.3916523,46.8915678 40.4138238,36.4757422 38.2889541,25.9322537 L38.293974,25.9301609 C37.6616793,22.7934212 35.6953539,20.2663242 33.1053095,18.8214316" id="Path"></path>
                    <path d="M13.4472841,40.5640934 C12.3537888,43.3812573 10.5447527,45.8844961 8.19838118,47.8076012" id="Path"></path>
                    <path d="M42.0243659,41.6247417 C42.8948952,36.3369873 42.8400949,30.8054177 41.7187812,25.2405721 L41.7208728,25.2391071 C40.1919037,17.6525838 32.8070454,12.7430045 25.2253664,14.2726568 C17.6432691,15.8025185 12.7363449,23.1918968 14.265314,30.7786294 L14.2816286,30.7752809 C14.6447326,32.577211 14.7175208,34.3703512 14.5319947,36.1057291" id="Path"></path>
                    <path d="M38.0339865,54.150144 C39.3031773,51.54331 40.3278585,48.8092316 41.0839766,45.9836964" id="Path"></path>
                    <path d="M42.1460977,17.7032304 C43.585755,19.6803307 44.6323982,21.992703 45.1475625,24.547844 L45.1486083,24.5486811 C47.0509304,33.9881997 46.1030113,43.3400285 42.9013792,51.7149224" id="Path"></path>
                    <path d="M20.6869844,12.0931795 C21.8917535,11.5406713 23.178723,11.117291 24.5340883,10.8439669 C29.8905002,9.76343667 35.1682674,11.2545809 39.0892052,14.467709" id="Path"></path>
                    <path d="M5.87940978,45.1804667 C9.83297678,42.0024983 11.9233349,36.7844352 10.8513832,31.4673811 L10.838206,31.4703111 C9.50668514,24.8638619 12.0806242,18.3771229 16.9697697,14.4045054" id="Path"></path>
                    <path d="M7.01076328,28.8408744 C7.05573296,29.9396123 7.18729542,31.0492329 7.41151634,32.1615742 L7.42218357,32.1588535 C8.20695679,36.0529897 6.73299707,39.8774346 3.90388125,42.2762409" id="Path"></path>
                    <path d="M49.0534407,26.576428 C48.9191591,25.671068 48.760824,24.7644523 48.5782262,23.8569995 L48.574043,23.8567902 C46.2820534,12.4826559 35.2103088,5.12215867 23.8432285,7.4152769 C15.1076066,9.17786171 8.74031812,16.1287913 7.30107917,24.4151583" id="Path"></path>
                    <path d="M47.8597571,47.7353985 C49.2874922,42.3771155 49.881092,36.7346258 49.5186154,30.9866571" id="Path"></path>
                    <path d="M31.2743114,3.71744848 C28.6405522,3.36145742 25.9040949,3.43156736 23.1525779,3.98679622 C9.89237859,6.66185666 1.31069938,19.5851067 3.98440835,32.8528372 L3.99256564,32.8507444 C4.45669458,35.1528618 3.73634304,37.4179361 2.25380771,39.0183262" id="Path"></path>
                    <path d="M52.6957757,41.1718524 C53.4234478,35.3234278 53.2362485,29.2602784 52.0078441,23.1648993 L52.0009418,23.1653179 C50.1827026,14.1426918 43.6280056,7.28531191 35.4502169,4.66194447" id="Path"></path>
                </g>
                <g id="Group-5">
                    <g id="Group" filter="url(#filter-1)" stroke="#7BC23E" stroke-width="6">
                        <path d="M43,86 C66.7482442,86 86,66.7482442 86,43 C86,19.2517558 66.7482442,0 43,0 C19.2517558,0 0,19.2517558 0,43 C0,66.7482442 19.2517558,86 43,86 Z" id="Oval"></path>
                    </g>
                    <g id="check-circle-(1)" transform="translate(66.000000, 0.000000)">
                        <rect id="Rectangle" x="0" y="0" width="29" height="29"></rect>
                        <circle id="Oval" stroke="#7BC23E" stroke-width="1.8" fill="#7BC23E" stroke-linecap="round" stroke-linejoin="round" cx="14.5" cy="14.5" r="10.875"></circle>
                        <polyline id="Path" stroke="#FFFFFF" stroke-width="2.8" stroke-linecap="round" stroke-linejoin="round" points="19.484375 11.78125 12.8385039 18.125 9.515625 14.953125"></polyline>
                    </g>
                </g>
            </g>
        </g>
    </g>
</svg>