<?xml version="1.0" encoding="UTF-8"?>
<svg width="150px" height="150px" viewBox="0 0 150 150" version="1.1" xmlns="http://www.w3.org/2000/svg" xmlns:xlink="http://www.w3.org/1999/xlink">
    <title>Group 4</title>
    <defs>
        <filter x="-48.8%" y="-48.8%" width="197.7%" height="197.7%" filterUnits="objectBoundingBox" id="filter-1">
            <feOffset dx="0" dy="0" in="SourceAlpha" result="shadowOffsetOuter1"></feOffset>
            <feGaussianBlur stdDeviation="10" in="shadowOffsetOuter1" result="shadowBlurOuter1"></feGaussianBlur>
            <feColorMatrix values="0 0 0 0 0.0156862745   0 0 0 0 0.490196078   0 0 0 0 1  0 0 0 0.621694712 0" type="matrix" in="shadowBlurOuter1" result="shadowMatrixOuter1"></feColorMatrix>
            <feMerge>
                <feMergeNode in="shadowMatrixOuter1"></feMergeNode>
                <feMergeNode in="SourceGraphic"></feMergeNode>
            </feMerge>
        </filter>
    </defs>
    <g id="Face-ID---Apple" stroke="none" stroke-width="1" fill="none" fill-rule="evenodd">
        <g id="Face-ID-1-#iOS" transform="translate(-112.000000, -184.000000)">
            <g id="Group-4" transform="translate(144.000000, 216.000000)">
                <g id="Group" filter="url(#filter-1)" stroke="#047DFF" stroke-width="6">
                    <path d="M43,86 C66.7482442,86 86,66.7482442 86,43 C86,19.2517558 66.7482442,0 43,0 C19.2517558,0 0,19.2517558 0,43 C0,66.7482442 19.2517558,86 43,86 Z" id="Oval"></path>
                </g>
                <g id="face-id-seeklogo.com" transform="translate(21.000000, 21.000000)" fill="#FFFFFF" fill-rule="nonzero" stroke="#FFFFFF" stroke-width="0.8">
                    <g id="Corners">
                        <g id="Corner">
                            <path d="M2.31428574,12.3428573 L2.31428574,7.3285715 C2.31428574,4.49621527 4.49621527,2.31428574 7.3285715,2.31428574 L12.3428573,2.31428574 C12.9819297,2.31428574 13.5,1.79621524 13.5,1.15714287 C13.5,0.51807051 12.9819297,0 12.3428573,0 L7.3285715,0 C3.21807054,0 0,3.21807054 0,7.3285715 L0,12.3428573 C0,12.9819297 0.51807051,13.5 1.15714287,13.5 C1.79621524,13.5 2.31428574,12.9819297 2.31428574,12.3428573 Z" id="Path"></path>
                        </g>
                        <g id="Corner" transform="translate(38.250000, 6.750000) scale(-1, 1) translate(-38.250000, -6.750000) translate(31.500000, 0.000000)">
                            <path d="M2.31428574,12.3428573 L2.31428574,7.3285715 C2.31428574,4.49621527 4.49621527,2.31428574 7.3285715,2.31428574 L12.3428573,2.31428574 C12.9819297,2.31428574 13.5,1.79621524 13.5,1.15714287 C13.5,0.51807051 12.9819297,0 12.3428573,0 L7.3285715,0 C3.21807054,0 0,3.21807054 0,7.3285715 L0,12.3428573 C0,12.9819297 0.51807051,13.5 1.15714287,13.5 C1.79621524,13.5 2.31428574,12.9819297 2.31428574,12.3428573 Z" id="Path"></path>
                        </g>
                        <g id="Corner" transform="translate(6.750000, 38.250000) scale(-1, 1) rotate(-180.000000) translate(-6.750000, -38.250000) translate(0.000000, 31.500000)">
                            <path d="M2.31428574,12.3428573 L2.31428574,7.3285715 C2.31428574,4.49621527 4.49621527,2.31428574 7.3285715,2.31428574 L12.3428573,2.31428574 C12.9819297,2.31428574 13.5,1.79621524 13.5,1.15714287 C13.5,0.51807051 12.9819297,0 12.3428573,0 L7.3285715,0 C3.21807054,0 0,3.21807054 0,7.3285715 L0,12.3428573 C0,12.9819297 0.51807051,13.5 1.15714287,13.5 C1.79621524,13.5 2.31428574,12.9819297 2.31428574,12.3428573 Z" id="Path"></path>
                        </g>
                        <g id="Corner" transform="translate(38.250000, 38.250000) rotate(180.000000) translate(-38.250000, -38.250000) translate(31.500000, 31.500000)">
                            <path d="M2.31428574,12.3428573 L2.31428574,7.3285715 C2.31428574,4.49621527 4.49621527,2.31428574 7.3285715,2.31428574 L12.3428573,2.31428574 C12.9819297,2.31428574 13.5,1.79621524 13.5,1.15714287 C13.5,0.51807051 12.9819297,0 12.3428573,0 L7.3285715,0 C3.21807054,0 0,3.21807054 0,7.3285715 L0,12.3428573 C0,12.9819297 0.51807051,13.5 1.15714287,13.5 C1.79621524,13.5 2.31428574,12.9819297 2.31428574,12.3428573 Z" id="Path"></path>
                        </g>
                    </g>
                    <g id="Eye" transform="translate(12.236842, 15.789474)">
                        <path d="M0,1.20535716 L0,4.42146186 C0,5.08716223 0.503679663,5.62681903 1.12500001,5.62681903 C1.74632037,5.62681903 2.25000003,5.08716223 2.25000003,4.42146186 L2.25000003,1.20535716 C2.25000003,0.539656782 1.74632037,0 1.12500001,0 C0.503679663,0 0,0.539656782 0,1.20535716 Z" id="Path"></path>
                    </g>
                    <g id="Eye" transform="translate(30.789474, 15.789474)">
                        <path d="M0,1.20535716 L0,4.42146186 C0,5.08716223 0.503679663,5.62681903 1.12500001,5.62681903 C1.74632037,5.62681903 2.25000003,5.08716223 2.25000003,4.42146186 L2.25000003,1.20535716 C2.25000003,0.539656782 1.74632037,0 1.12500001,0 C0.503679663,0 0,0.539656782 0,1.20535716 Z" id="Path"></path>
                    </g>
                    <path d="M14.5867286,33.2341448 C16.7811252,35.2822483 19.4388036,36.3157899 22.5000003,36.3157899 C25.561197,36.3157899 28.2188754,35.2822483 30.413272,33.2341448 C30.8913978,32.7878941 30.9172376,32.0385388 30.4709869,31.560413 C30.0247361,31.0822872 29.2753809,31.0564474 28.7972551,31.5026981 C27.0442832,33.1388052 24.9651194,33.9473688 22.5000003,33.9473688 C20.0348811,33.9473688 17.9557174,33.1388052 16.2027455,31.5026981 C15.7246197,31.0564474 14.9752644,31.0822872 14.5290137,31.560413 C14.0827629,32.0385388 14.1086028,32.7878941 14.5867286,33.2341448 Z" id="Mouth"></path>
                    <path d="M22.5000003,16.9736844 L22.5000003,25.2631582 C22.5000003,25.7936459 22.2407114,26.0526319 21.7075903,26.0526319 L20.9210529,26.0526319 C20.2670315,26.0526319 19.7368424,26.582821 19.7368424,27.2368424 C19.7368424,27.8908639 20.2670315,28.421053 20.9210529,28.421053 L21.7075903,28.421053 C23.548135,28.421053 24.8684214,27.1023089 24.8684214,25.2631582 L24.8684214,16.9736844 C24.8684214,16.319663 24.3382322,15.7894739 23.6842108,15.7894739 C23.0301894,15.7894739 22.5000003,16.319663 22.5000003,16.9736844 Z" id="Nose"></path>
                </g>
            </g>
        </g>
    </g>
</svg>