<?xml version="1.0" encoding="UTF-8"?>
<svg width="238px" height="26px" viewBox="0 0 238 26" version="1.1" xmlns="http://www.w3.org/2000/svg" xmlns:xlink="http://www.w3.org/1999/xlink">
    <title>SPORTSBOOK</title>
    <g id="Page-1" stroke="none" stroke-width="1" fill="none" fill-rule="evenodd">
        <g id="Sign-up-#Error" transform="translate(-70.000000, -173.000000)" fill="#FFFFFF" fill-rule="nonzero">
            <path d="M79.69,198.238 C81.458,198.238 83.0333333,197.960333 84.416,197.405 C85.7986667,196.849667 86.915,196.090333 87.765,195.127 C88.615,194.163667 89.142,193.092667 89.346,191.914 C89.4593333,191.234 89.516,190.656 89.516,190.18 C89.516,188.82 89.2043333,187.692333 88.581,186.797 C87.9576667,185.901667 87.221,185.210333 86.371,184.723 C85.521,184.235667 84.45,183.731333 83.158,183.21 C82.0473333,182.756667 81.237,182.365667 80.727,182.037 C80.217,181.708333 79.962,181.294667 79.962,180.796 C79.962,180.342667 80.0923333,179.997 80.353,179.759 C80.6136667,179.521 80.9253333,179.402 81.288,179.402 C82.2173333,179.402 82.6253333,180.036667 82.512,181.306 L82.512,181.306 L90.638,181.306 C90.57,178.835333 89.7766667,176.92 88.258,175.56 C86.7393333,174.2 84.4273333,173.52 81.322,173.52 C78.8966667,173.52 76.7943333,174.041333 75.015,175.084 C73.2356667,176.126667 72.176,177.6 71.836,179.504 C71.7226667,180.184 71.666,180.762 71.666,181.238 C71.666,182.575333 71.972,183.691667 72.584,184.587 C73.196,185.482333 73.927,186.185 74.777,186.695 C75.627,187.205 76.6866667,187.720667 77.956,188.242 C79.112,188.740667 79.9563333,189.171333 80.489,189.534 C81.0216667,189.896667 81.288,190.35 81.288,190.894 C81.288,191.37 81.1406667,191.732667 80.846,191.982 C80.5513333,192.231333 80.1886667,192.356 79.758,192.356 C78.6246667,192.356 78.126,191.664667 78.262,190.282 L78.262,190.282 L70.238,190.282 C70.2606667,192.820667 71.0993333,194.781333 72.754,196.164 C74.4086667,197.546667 76.7206667,198.238 79.69,198.238 Z M98.254,198 L99.58,190.35 L102.572,190.35 C104.521333,190.35 106.249667,189.987333 107.757,189.262 C109.264333,188.536667 110.477,187.556333 111.395,186.321 C112.313,185.085667 112.908,183.708667 113.18,182.19 C113.293333,181.51 113.35,180.920667 113.35,180.422 C113.35,178.404667 112.681333,176.818 111.344,175.662 C110.006667,174.506 108.046,173.928 105.462,173.928 L105.462,173.928 L94.922,173.928 L90.706,198 L98.254,198 Z M102.776,184.4 L100.634,184.4 L101.416,179.98 L103.558,179.98 C104.895333,179.98 105.564,180.535333 105.564,181.646 C105.564,181.872667 105.552667,182.054 105.53,182.19 C105.258,183.663333 104.34,184.4 102.776,184.4 L102.776,184.4 Z M125.182,198.238 C127.516667,198.238 129.607667,197.773333 131.455,196.844 C133.302333,195.914667 134.815333,194.617 135.994,192.951 C137.172667,191.285 137.954667,189.375333 138.34,187.222 C138.521333,186.134 138.612,185.148 138.612,184.264 C138.612,182.133333 138.17,180.257667 137.286,178.637 C136.402,177.016333 135.121333,175.758333 133.444,174.863 C131.766667,173.967667 129.783333,173.52 127.494,173.52 C125.159333,173.52 123.062667,173.984667 121.204,174.914 C119.345333,175.843333 117.821,177.135333 116.631,178.79 C115.441,180.444667 114.653333,182.348667 114.268,184.502 C114.086667,185.431333 113.996,186.451333 113.996,187.562 C113.996,189.692667 114.432333,191.562667 115.305,193.172 C116.177667,194.781333 117.452667,196.028 119.13,196.912 C120.807333,197.796 122.824667,198.238 125.182,198.238 Z M125.726,191.2 C124.320667,191.2 123.261,190.826 122.547,190.078 C121.833,189.33 121.476,188.298667 121.476,186.984 C121.476,186.462667 121.521333,185.975333 121.612,185.522 C121.884,183.958 122.484667,182.728333 123.414,181.833 C124.343333,180.937667 125.522,180.49 126.95,180.49 C128.332667,180.49 129.381,180.858333 130.095,181.595 C130.809,182.331667 131.166,183.368667 131.166,184.706 C131.166,185.227333 131.120667,185.726 131.03,186.202 C130.780667,187.720667 130.185667,188.933333 129.245,189.84 C128.304333,190.746667 127.131333,191.2 125.726,191.2 Z M146.568,198 L148.064,189.364 L151.124,198 L159.42,198 L155.782,188.786 C157.55,188.242 158.995,187.352333 160.117,186.117 C161.239,184.881667 161.947333,183.448 162.242,181.816 C162.332667,181.362667 162.378,180.864 162.378,180.32 C162.378,178.393333 161.703667,176.846333 160.355,175.679 C159.006333,174.511667 157.04,173.928 154.456,173.928 L154.456,173.928 L143.236,173.928 L139.02,198 L146.568,198 Z M151.94,184.332 L148.948,184.332 L149.696,180.252 L152.688,180.252 C153.3,180.252 153.759,180.393667 154.065,180.677 C154.371,180.960333 154.524,181.351333 154.524,181.85 C154.524,182.031333 154.512667,182.178667 154.49,182.292 C154.263333,183.652 153.413333,184.332 151.94,184.332 L151.94,184.332 Z M174.312,198 L177.474,179.912 L183.866,179.912 L184.92,173.928 L164.656,173.928 L163.602,179.912 L169.926,179.912 L166.764,198 L174.312,198 Z M192.842,198.238 C194.61,198.238 196.185333,197.960333 197.568,197.405 C198.950667,196.849667 200.067,196.090333 200.917,195.127 C201.767,194.163667 202.294,193.092667 202.498,191.914 C202.611333,191.234 202.668,190.656 202.668,190.18 C202.668,188.82 202.356333,187.692333 201.733,186.797 C201.109667,185.901667 200.373,185.210333 199.523,184.723 C198.673,184.235667 197.602,183.731333 196.31,183.21 C195.199333,182.756667 194.389,182.365667 193.879,182.037 C193.369,181.708333 193.114,181.294667 193.114,180.796 C193.114,180.342667 193.244333,179.997 193.505,179.759 C193.765667,179.521 194.077333,179.402 194.44,179.402 C195.369333,179.402 195.777333,180.036667 195.664,181.306 L195.664,181.306 L203.79,181.306 C203.722,178.835333 202.928667,176.92 201.41,175.56 C199.891333,174.2 197.579333,173.52 194.474,173.52 C192.048667,173.52 189.946333,174.041333 188.167,175.084 C186.387667,176.126667 185.328,177.6 184.988,179.504 C184.874667,180.184 184.818,180.762 184.818,181.238 C184.818,182.575333 185.124,183.691667 185.736,184.587 C186.348,185.482333 187.079,186.185 187.929,186.695 C188.779,187.205 189.838667,187.720667 191.108,188.242 C192.264,188.740667 193.108333,189.171333 193.641,189.534 C194.173667,189.896667 194.44,190.35 194.44,190.894 C194.44,191.37 194.292667,191.732667 193.998,191.982 C193.703333,192.231333 193.340667,192.356 192.91,192.356 C191.776667,192.356 191.278,191.664667 191.414,190.282 L191.414,190.282 L183.39,190.282 C183.412667,192.820667 184.251333,194.781333 185.906,196.164 C187.560667,197.546667 189.872667,198.238 192.842,198.238 Z M216.472,198 C219.078667,198 221.175333,197.427667 222.762,196.283 C224.348667,195.138333 225.334667,193.512 225.72,191.404 C225.788,191.018667 225.822,190.644667 225.822,190.282 C225.822,189.171333 225.504667,188.196667 224.87,187.358 C224.235333,186.519333 223.328667,185.952667 222.15,185.658 C223.419333,185.340667 224.507333,184.700333 225.414,183.737 C226.320667,182.773667 226.898667,181.589333 227.148,180.184 C227.238667,179.594667 227.284,179.164 227.284,178.892 C227.284,177.26 226.677667,176.024667 225.465,175.186 C224.252333,174.347333 222.546667,173.928 220.348,173.928 L220.348,173.928 L208.074,173.928 L203.858,198 L216.472,198 Z M216.914,183.312 L213.99,183.312 L214.568,179.912 L217.492,179.912 C218.670667,179.912 219.26,180.331333 219.26,181.17 C219.26,181.260667 219.237333,181.419333 219.192,181.646 C219.101333,182.212667 218.869,182.632 218.495,182.904 C218.121,183.176 217.594,183.312 216.914,183.312 L216.914,183.312 Z M215.894,191.948 L212.46,191.948 L213.072,188.548 L216.506,188.548 C217.662,188.548 218.24,188.978667 218.24,189.84 C218.24,190.021333 218.228667,190.168667 218.206,190.282 C218.115333,190.871333 217.883,191.296333 217.509,191.557 C217.135,191.817667 216.596667,191.948 215.894,191.948 L215.894,191.948 Z M239.524,198.238 C241.858667,198.238 243.949667,197.773333 245.797,196.844 C247.644333,195.914667 249.157333,194.617 250.336,192.951 C251.514667,191.285 252.296667,189.375333 252.682,187.222 C252.863333,186.134 252.954,185.148 252.954,184.264 C252.954,182.133333 252.512,180.257667 251.628,178.637 C250.744,177.016333 249.463333,175.758333 247.786,174.863 C246.108667,173.967667 244.125333,173.52 241.836,173.52 C239.501333,173.52 237.404667,173.984667 235.546,174.914 C233.687333,175.843333 232.163,177.135333 230.973,178.79 C229.783,180.444667 228.995333,182.348667 228.61,184.502 C228.428667,185.431333 228.338,186.451333 228.338,187.562 C228.338,189.692667 228.774333,191.562667 229.647,193.172 C230.519667,194.781333 231.794667,196.028 233.472,196.912 C235.149333,197.796 237.166667,198.238 239.524,198.238 Z M240.068,191.2 C238.662667,191.2 237.603,190.826 236.889,190.078 C236.175,189.33 235.818,188.298667 235.818,186.984 C235.818,186.462667 235.863333,185.975333 235.954,185.522 C236.226,183.958 236.826667,182.728333 237.756,181.833 C238.685333,180.937667 239.864,180.49 241.292,180.49 C242.674667,180.49 243.723,180.858333 244.437,181.595 C245.151,182.331667 245.508,183.368667 245.508,184.706 C245.508,185.227333 245.462667,185.726 245.372,186.202 C245.122667,187.720667 244.527667,188.933333 243.587,189.84 C242.646333,190.746667 241.473333,191.2 240.068,191.2 Z M265.772,198.238 C268.106667,198.238 270.197667,197.773333 272.045,196.844 C273.892333,195.914667 275.405333,194.617 276.584,192.951 C277.762667,191.285 278.544667,189.375333 278.93,187.222 C279.111333,186.134 279.202,185.148 279.202,184.264 C279.202,182.133333 278.76,180.257667 277.876,178.637 C276.992,177.016333 275.711333,175.758333 274.034,174.863 C272.356667,173.967667 270.373333,173.52 268.084,173.52 C265.749333,173.52 263.652667,173.984667 261.794,174.914 C259.935333,175.843333 258.411,177.135333 257.221,178.79 C256.031,180.444667 255.243333,182.348667 254.858,184.502 C254.676667,185.431333 254.586,186.451333 254.586,187.562 C254.586,189.692667 255.022333,191.562667 255.895,193.172 C256.767667,194.781333 258.042667,196.028 259.72,196.912 C261.397333,197.796 263.414667,198.238 265.772,198.238 Z M266.316,191.2 C264.910667,191.2 263.851,190.826 263.137,190.078 C262.423,189.33 262.066,188.298667 262.066,186.984 C262.066,186.462667 262.111333,185.975333 262.202,185.522 C262.474,183.958 263.074667,182.728333 264.004,181.833 C264.933333,180.937667 266.112,180.49 267.54,180.49 C268.922667,180.49 269.971,180.858333 270.685,181.595 C271.399,182.331667 271.756,183.368667 271.756,184.706 C271.756,185.227333 271.710667,185.726 271.62,186.202 C271.370667,187.720667 270.775667,188.933333 269.835,189.84 C268.894333,190.746667 267.721333,191.2 266.316,191.2 Z M287.158,198 L288.994,187.562 L294.162,198 L303.24,198 L296.508,185.624 L307.456,173.928 L298.446,173.928 L289.606,184.094 L291.374,173.928 L283.826,173.928 L279.61,198 L287.158,198 Z" id="SPORTSBOOK"></path>
        </g>
    </g>
</svg>